PathFileType	4	(X/Y/Z)	Walk3.trc
DataRate	CameraRate	NumFrames	NumMarkers	Units	OrigDataRate	OrigDataStartFrame	OrigNumFrames
200.000000	200.000000	8	56	mm	200.000000	531	604
Frame#	Times		RFA1		RUA1		RACR1		LFA1		RBHD		RASI		C7		RTH2		RTH3		RElbow		LElbowM		RTB1		RTB3		RWRU		RTH4		RLFC		RTH1		LACR1		RTB2		RMT1		RCAR		RMT5		RTB4		LElbow		LTH2		LTH3		LTH4		LWRU		LPSI		RPSI		LTB1		LLFC		T10		RWRR		LTH1		LBHD		LWRR		LTB3		LTB2		LFHD		LMT1		RBack		LCAL		LTB4		LLMAL		CLAV		LMMAL		RElbowM		LToe		LMT5		RMMAL		RLMAL		LCAR		LUA1		RCAL		RToe
			X1	Y1	Z1	X2	Y2	Z2	X3	Y3	Z3	X4	Y4	Z4	X5	Y5	Z5	X6	Y6	Z6	X7	Y7	Z7	X8	Y8	Z8	X9	Y9	Z9	X10	Y10	Z10	X11	Y11	Z11	X12	Y12	Z12	X13	Y13	Z13	X14	Y14	Z14	X15	Y15	Z15	X16	Y16	Z16	X17	Y17	Z17	X18	Y18	Z18	X19	Y19	Z19	X20	Y20	Z20	X21	Y21	Z21	X22	Y22	Z22	X23	Y23	Z23	X24	Y24	Z24	X25	Y25	Z25	X26	Y26	Z26	X27	Y27	Z27	X28	Y28	Z28	X29	Y29	Z29	X30	Y30	Z30	X31	Y31	Z31	X32	Y32	Z32	X33	Y33	Z33	X34	Y34	Z34	X35	Y35	Z35	X36	Y36	Z36	X37	Y37	Z37	X38	Y38	Z38	X39	Y39	Z39	X40	Y40	Z40	X41	Y41	Z41	X42	Y42	Z42	X43	Y43	Z43	X44	Y44	Z44	X45	Y45	Z45	X46	Y46	Z46	X47	Y47	Z47	X48	Y48	Z48	X49	Y49	Z49	X50	Y50	Z50	X51	Y51	Z51	X52	Y52	Z52	X53	Y53	Z53	X54	Y54	Z54	X55	Y55	Z55	X56	Y56	Z56

531	2.655	808.52	918.77	552.06	874.15	1179.4	509.16	951.55	1364.1	439.78	978.55	994.16	-51.284	911.94	1546.8	373.01	990.81	926.69	402.64	889.43	1420.4	292.76	1080.1	671.34	414.1	1055.7	555.54	422.03	802.79	1064.5	524.23	840.33	1094.4	60.594	1128.6	373.47	315.92	1118.9	183.13	313.49	768.14	791.56	542.96	1019.7	639.42	443.79	1091.7	460.41	403.46	981.94	725.86	456.7	934.03	1418.3	115.66	1120.9	276.54	388.22	1212.4	38.034	270.72	797.82	730.27	554.47	1187.3	30.71	359.36	1126.8	280.57	316.31	860.37	1105.3	-20.059	970.1	616.31	107.87	891.98	532.94	87.5	899.4	622.41	78.382	993.76	875.78	-48.704	798.85	937.82	209.41	802.33	941.57	315.24	828.83	318.14	152.83	855.28	424	99.822	792.13	1112.3	263.26	840.02	774.69	514.94	909.27	719.47	75.379	910.56	1559.1	234.72	1058.9	911.32	-13.328	671.13	219.08	165.92	725.17	297.93	98.675	1091.8	1590	259.46	583.29	50.648	223.76	816.18	1325.3	377.12	474.32	212.46	194.91	748.56	269.28	160.57	530.76	199.15	146	1026.5	1340.3	275.94	567.89	182.57	228.95	788.12	1046.2	430.64	615.16	23.929	202.48	564.56	59.547	143.11	1083.5	94.659	270.8	1065	78.19	360.25	1075.3	864.56	-64.586	893.61	1232.1	7.7822	1012.3	30.981	320.02	1265	36.013	291.24
532	2.66	818.92	918.81	553.18	883.17	1179.8	509.65	959.23	1364.6	440.12	983.75	994.65	-50.299	919.07	1547.1	373.91	997.62	928.14	403.07	896.19	1421.3	293.55	1085.6	671.05	414.05	1059.7	555.81	421.12	812.26	1064.3	525.49	846.8	1096.2	62.597	1130.4	372.48	315.19	1120	182.68	312.83	779.47	791.73	543.93	1025	639.75	443.64	1095.5	460.25	403.02	988.08	726.5	456.86	940.72	1419.6	116.31	1123.1	276.07	387.55	1212.4	37.431	269.67	809.71	730.3	555.38	1187.4	30.674	359.07	1128.5	279.91	315.63	866.14	1107	-19.222	980.65	616.72	108.02	904.11	532.03	87.945	909.86	621.66	79.045	997.85	875.91	-47.637	805.05	938.32	209.69	808.81	942.26	315.68	841.84	317.52	153.98	869.14	422.67	100.42	798.5	1113.4	263.7	851.43	775.5	516.1	917.81	718.87	76.421	917.54	1560.3	235.41	1063.8	911	-12.672	681.89	221.53	166.73	738.49	298.47	98.896	1098.8	1590.7	260.53	593.14	54.571	222.37	823.48	1326	378.27	485.04	219.23	193.38	760.79	270.32	161.35	541.93	204.44	145.2	1033.5	1341	275.97	577.39	188.08	229.34	796.93	1046.2	432.05	623.41	27.758	200.87	573.81	64.966	142.74	1083.6	94.354	270.41	1065.4	78.186	359.96	1079.3	864.07	-63.943	900.19	1233.2	8.6044	1012.3	30.98	319.96	1265.1	35.754	290.8
533	2.665	830.25	919.09	553.83	892.06	1180	510.25	967.03	1365.2	440.16	988.89	995.06	-49.256	926.09	1547.7	374.63	1004	929.48	403.58	903.04	1422.1	294.39	1090.7	670.85	413.76	1063.9	555.72	419.84	821.5	1064.4	526.56	853.19	1098	64.444	1132.7	372.13	314.44	1120.8	182.2	312.33	790.9	791.7	544.99	1030.2	640.24	443.41	1099.1	460.11	402.58	994.1	727.33	457.22	947.24	1420.9	116.97	1125.1	275.66	387.02	1212.4	36.865	269.16	821.37	730.16	556.18	1187.4	30.618	358.98	1130	279.46	315.07	871.76	1108.2	-17.937	991.38	617.36	108.11	916.06	531.25	88.548	920.32	621.2	79.543	1001.9	876.17	-46.388	811.31	939.3	209.97	814.89	943.32	316.3	854.52	317.54	155.61	883.01	421.54	100.97	805.01	1114.3	264.35	863.4	775.95	518.28	926.39	718.37	77.294	924.46	1561.3	236.08	1067.9	910.71	-11.753	693.21	224.39	167.84	751.95	298.99	99.251	1105.8	1591.7	261.55	603.49	58.878	221.19	830.68	1326.7	379.71	496.67	225.42	192.08	773.08	271.93	162.64	553.4	209.47	144.88	1040.1	1341.7	276.01	587.7	193.28	229.51	805.86	1045.9	433.11	633.75	32.542	200.38	583.55	69.741	142.1	1083.8	94.037	270.11	1065.6	78.159	359.74	1083.1	863.62	-63.05	906.52	1234.5	9.4747	1012.3	31.024	319.83	1265.3	35.533	290.7
534	2.67	840.36	918.96	554.89	900.92	1180.3	510.95	974.76	1365.9	440.17	993.75	995.5	-48.354	933.08	1548.2	375.37	1010.5	930.82	403.9	909.7	1423.1	295.02	1096.1	670.92	413.33	1068.5	555.74	420.23	830.84	1064.7	527.36	859.46	1099.9	65.808	1134.7	371.76	314.13	1121.6	181.78	312.02	802.53	791.44	546.13	1035.3	640.71	443.42	1102.2	460.07	402.22	1000.3	728.22	457.16	953.54	1422.1	117.53	1127.1	275.17	386.52	1212.5	36.671	269.07	833.38	730.11	557.11	1187.5	30.636	358.99	1131.4	278.91	314.65	877.35	1109.6	-16.934	1002	618.33	108.23	927.99	530.71	89.045	930.62	620.82	79.924	1005.9	876.44	-45.351	817.59	940.12	210.63	820.94	944.53	316.29	867.23	318.18	157.5	896.88	420.87	101.38	811.38	1115.5	264.84	874.85	776.09	519.45	934.84	718.21	77.961	931.45	1562.4	236.97	1072.4	910.45	-10.876	704.64	227.38	169.02	765.84	299.64	99.542	1112.9	1592.6	262.59	613.69	62.872	220.42	837.93	1327.6	380.92	508.35	230.79	191.72	785.19	274.01	163.94	565.26	214.19	144.44	1046.8	1342.5	275.99	598.87	197.64	229.36	814.65	1046.1	433.95	644.75	36.62	199.87	594.12	74.416	141.02	1084	93.756	269.81	1065.5	78.257	359.91	1086.9	863.14	-62.122	912.92	1235.6	10.143	1012.3	31.057	319.8	1265.6	35.318	290.89
535	2.675	850.74	919.02	555.89	909.97	1180.7	511.42	982.35	1366.5	440.33	998.62	995.86	-47.428	940.08	1548.9	376.19	1017	932.15	404.32	916.43	1424	295.84	1101.4	670.95	412.82	1072.8	556.26	420.92	840.25	1064.9	528.47	865.44	1102	67.025	1136.5	371.16	313.93	1122.5	181.29	311.69	814.2	791.25	547.36	1040.1	641.21	443.4	1105.2	460	402.06	1006.3	729.12	456.99	959.95	1423.6	117.94	1128.9	274.8	386.14	1212.6	36.721	269.18	845.73	730.33	558.07	1187.6	30.718	358.97	1133	278.45	314.32	883.08	1111	-15.796	1012.7	620.19	108.39	939.77	530.79	89.536	940.92	620.57	80.207	1009.8	876.94	-44.312	823.82	940.95	210.8	827.55	945.61	316.93	880.32	319.22	159.1	910.86	420.8	101.65	817.73	1116.7	265.36	886.24	776.72	519.55	943.17	718.28	78.451	938.63	1563.5	238.02	1076.8	910.14	-10.092	717.01	230.37	169.66	779.77	300.83	99.904	1119.9	1593.4	263.44	624.54	66.839	219.8	845.13	1328.5	381.9	520.11	235.2	190.73	797.81	275.98	165.16	577.49	218.71	144.18	1053.3	1343.4	276.07	610.82	201.27	229.07	823.47	1046.2	435.03	655.62	40.417	199.43	605.28	78.863	140.04	1084.2	93.533	269.61	1065.4	79.289	360.08	1090.5	862.63	-61.267	919.13	1236.7	10.781	1012.2	31.08	319.82	1266.2	34.838	290.76
536	2.68	861.61	919.33	556.88	919.22	1181.1	511.8	989.85	1367.3	440.3	1003.4	996.38	-46.412	946.96	1549.8	376.97	1023.3	933.46	404.58	923.07	1425.2	296.36	1106.5	671.05	412.58	1076.8	556.6	421.11	849.75	1065	529.57	871.13	1104	68.063	1138.3	370.67	314	1123.4	181.01	311.57	826.07	791.31	548.6	1045.4	642.03	443.24	1108.3	459.88	401.85	1012	730.15	456.93	966.16	1424.8	118.37	1130.4	274.37	386.06	1212.7	36.817	269.31	858.29	730.41	559.05	1187.6	30.788	358.92	1134.2	277.96	314.31	888.64	1112.2	-14.721	1022.8	621.63	108.91	951.61	531.14	89.711	951.12	621.26	80.491	1013.4	877.5	-43.486	829.95	942	211.67	834.06	946.94	317.61	893.61	320.65	160.11	924.97	421.43	101.82	824	1118.1	265.71	897.85	777.35	519.46	951.75	718.71	78.738	945.81	1564.7	238.91	1081.1	909.83	-9.2655	730	233.29	169.9	793.49	302.58	100.32	1126.9	1594.2	264.28	636.05	70.427	218.99	852.16	1329.3	383.01	533.06	238.55	191.08	810.63	277.93	165.98	590.24	222.72	144.08	1059.8	1344.3	275.91	623.27	204.76	228.74	832.31	1046.2	436.16	666.77	43.344	198.1	617.58	83.641	139.3	1084.3	93.418	269.47	1065.8	78.472	359.66	1093.9	862	-60.075	925.4	1238	11.316	1012.3	31.081	319.84	1266.5	34.598	290.14
537	2.685	872.47	919.33	558.18	928.1	1181.6	512.36	997.21	1368	440.25	1008	996.79	-45.432	953.8	1550.6	377.54	1029.6	934.69	404.95	929.68	1426.3	296.89	1111.2	671.02	412.31	1080.7	556.96	421.05	859.35	1064.9	530.68	876.63	1105.9	68.825	1140.3	370.26	314.08	1124.1	180.67	311.65	838.18	791.02	549.72	1050.3	642.62	443.28	1111.2	459.82	401.81	1017.6	731.07	456.89	972.31	1426.1	118.61	1131.7	273.99	386.24	1212.7	36.886	269.38	870.74	730.66	560.17	1187.7	30.799	358.87	1135.7	277.64	314.36	894.07	1113.5	-13.558	1032.7	623.9	109.49	963.44	532.07	89.821	961.03	621.84	80.887	1017.3	877.83	-42.396	836.03	942.91	212.45	840.25	948.09	318.42	907.38	322.31	160.51	939.16	422.6	101.93	830.23	1119.5	266.37	909.86	777.75	520.11	960.23	719.71	78.91	952.7	1566	239.43	1084.6	909.57	-8.3778	743	235.94	169.99	807.09	304.75	100.63	1133.9	1595.2	265.11	648.36	73.75	218	859.34	1330.1	384.14	545.92	242.92	191.92	824.08	280.02	166.29	603.2	226.27	143.94	1066.2	1345.4	275.61	636.26	208.08	228.49	840.96	1046.2	437.27	678.7	47.255	197.17	630.04	87.089	138.32	1084.4	93.39	269.39	1066.1	78.015	359.24	1097.5	861.67	-59.337	931.43	1239.2	11.904	1012.3	31.138	319.86	1266.5	33.717	289.25
538	2.69	883.58	919.56	559.1	937.14	1182.2	512.87	1004.5	1368.9	440.2	1012.6	997.23	-44.744	960.76	1551.7	378.12	1036.1	936.05	405.02	936.1	1427.5	297.27	1116	671.1	411.98	1084.5	557.11	420.92	868.9	1064.8	531.89	881.75	1107.4	69.529	1142.2	369.85	314.26	1124.9	180.39	311.79	850.56	791.18	550.86	1054.6	643.09	443.5	1113.7	459.68	401.94	1023.1	732.06	456.87	978.16	1427.4	118.88	1132.7	273.66	386.47	1212.6	36.869	269.34	883.42	730.88	561.22	1187.7	30.782	358.87	1136.9	277.25	314.58	899.39	1114.8	-12.893	1042.8	626.52	109.96	975.08	533.36	89.781	970.83	622.75	80.996	1021	878.15	-41.331	842.09	944.14	213.17	846.76	949.67	318.39	921.25	323.87	160.71	953.38	424.06	101.97	836.21	1120.7	267.03	922.17	778.47	520.86	968.31	720.84	79.222	959.56	1567.8	240.12	1088.7	909.59	-7.4823	756.44	238.4	169.97	820.86	307.1	100.88	1140.9	1596.2	265.84	661.38	76.827	217.02	866.03	1331.1	385.24	559.18	246.42	192.21	837.88	282.19	166.16	616.43	229.65	143.98	1072.6	1346.5	275.41	649.47	211.06	228.47	849.68	1046.5	438.6	691.69	50.527	195.99	642.93	90.56	137.82	1084.5	93.48	269.38	1066.2	78.062	359.04	1101.2	861.23	-58.38	937.48	1240.4	12.319	1012.2	31.167	319.98	1266.2	32.813	288.58
